<?xml version="1.0" encoding="UTF-8"?>
<svg id="Layer_2" data-name="Layer 2" xmlns="http://www.w3.org/2000/svg" xmlns:xlink="http://www.w3.org/1999/xlink" viewBox="0 0 1017.19 1066.51">
  <defs>
    <style>
      .cls-1 {
        fill: #fff;
      }

      .cls-2 {
        fill: #808048;
      }

      .cls-3 {
        fill: #ebfff6;
      }

      .cls-4 {
        fill: #133c2b;
      }

      .cls-5 {
        fill: none;
        mask: url(#mask);
      }

      .cls-6 {
        fill: url(#linear-gradient);
      }
    </style>
    <mask id="mask" x="22.01" y="109.22" width="973.17" height="699.84" maskUnits="userSpaceOnUse">
      <path class="cls-1" d="m920.68,412.43l-203.88-142.76s-.02-.03-.02-.04v-107.78c0-11.98-9.32-22.22-21.3-22.62s-22.81,9.61-22.81,22.04v77.41s-.05.07-.08.04l-158.98-111.32h0c-4.09-4.51-9.96-7.24-16.33-7.24h-.95c-6.36,0-12.24,2.73-16.33,7.23h0S72.92,412.43,72.92,412.43c-19.95,13.97-24.8,41.47-10.83,61.42h0s360.49-252.41,360.49-252.41c.02-.01.04-.01.06,0l222.36,155.7h0c13.38,9.37,20.62,25.21,19.12,41.47-8,86.65-39.8,156.51-94.82,208.05-20.94,19.62-45.16,36.7-72.57,51.24-.02,0-.03,0-.05,0-27.41-14.55-51.62-31.63-72.56-51.24-55.02-51.54-86.83-121.41-94.82-208.07-1.5-16.26,5.74-32.1,19.12-41.47l93.24-65.29c12.25-8.58,18.81-22.26,18.81-36.15,0-8.73-2.58-17.53-7.95-25.22-.02-.02-.05-.03-.07-.01l-164.18,114.97c-12.22,8.54-22.69,19.25-30.94,31.54-3.62,5.38-6.8,11.07-9.52,17.01-5.94,12.98-12.7,28.64-18.34,44.12-.33.9-.66,1.81-.98,2.71-.04.12-.09.25-.13.37-7.67,21.6-15.5,47.39-21.3,75.37-9.5,45.89-11.53,88.23-6.03,125.82,4.16,28.41,12.63,54.09,25.25,76.87.02.03,0,.08-.04.08-26.39.93-53.9.92-82.56-.06-1.06-.04-2.58-.1-4.43-.18-24.25-1.06-44.83,17.62-46.14,41.85,0,.03.02.05.05.06l21.97,1.16c23.99,1.27,47.34,1.9,70.06,1.9,76.77,0,146.17-7.24,206.98-21.64,38.07-9.01,72.96-20.89,104.52-35.53.01,0,.03,0,.04,0,31.56,14.64,66.45,26.51,104.52,35.53,60.82,14.4,130.2,21.64,206.98,21.64,22.72,0,46.08-.63,70.06-1.9l21.97-1.16s.05-.03.05-.06c-1.32-24.28-21.93-42.98-46.23-41.93-6.65.29-12.37.51-15.64.6-24.61.63-48.36.53-71.27-.28-.04,0-.06-.04-.04-.08,12.62-22.78,21.1-48.47,25.26-76.88,5.51-37.6,3.48-79.93-6.03-125.82-5.79-27.97-13.62-53.76-21.3-75.36-5.84-16.46-13.11-33.38-19.44-47.22-8.92-19.5-22.89-36.26-40.46-48.56l-244.04-170.87s-.03-.07,0-.09l35.67-24.97s.04-.01.06,0l434.68,304.37h0c13.97-19.95,9.12-47.45-10.83-61.42Zm-643.89,323.81c-71.88-95.09-13.15-250.11,9.71-301.65.02-.05.09-.03.1.02,10.76,92.19,46.75,167.45,107.37,224.24,16.05,15.04,33.85,28.76,53.33,41.16.04.02.03.08,0,.09-48.96,18.43-105.85,30.5-170.45,36.16-.02,0-.04,0-.05-.02Zm429.89-300.64c0-.05.07-.06.1-.02,2.02,3.7,3.86,7.51,5.49,11.42.08.18.15.37.23.55,25.29,60.97,70.89,200.43,4.1,288.68-.01.01-.03.02-.05.02-64.59-5.67-121.47-17.74-170.43-36.17-.04-.02-.05-.07,0-.09,19.48-12.39,37.28-26.12,53.33-41.15,60.4-56.58,96.34-131.51,107.24-223.25Z"/>
    </mask>
    <linearGradient id="linear-gradient" x1="-185.4" y1="896.74" x2="-185.4" y2="1596.59" gradientTransform="translate(694 1705.81) scale(1 -1)" gradientUnits="userSpaceOnUse">
      <stop offset="0" stop-color="#938440"/>
      <stop offset="1" stop-color="#c8a652"/>
    </linearGradient>
  </defs>
  <g id="Layer_1-2" data-name="Layer 1">
    <g>
      <rect class="cls-3" width="1017.19" height="1066.51" rx="344.83" ry="344.83"/>
      <g>
        <g>
          <path class="cls-2" d="m507.82,607.79c-42.23-42.22-127.91-99.71-117.88-168.93,9.11-62.93,91.57-66.42,118.68-15.08,17.48-24.61,38.25-42.19,70.48-36.23,29.48,5.45,46.88,27.95,48.8,57.36,4.41,67.94-76.52,122.35-120.08,162.87Z"/>
          <g class="cls-5">
            <rect class="cls-6" x="22.01" y="109.22" width="973.17" height="699.84"/>
          </g>
        </g>
        <g>
          <path class="cls-4" d="m350.55,851.29v-.49c-6.92-7.09-12.63-11.81-17.11-14.17l-10.75,15.15v.98c2.36,1.14,8.06,5.38,17.11,12.71,5.54-4.89,9.12-9.61,10.75-14.17Z"/>
          <path class="cls-4" d="m717.96,870.78c-1.47-4.52-5.62-6.7-12.46-6.54h-129.51c-.12.03-.21.08-.33.12h-.04c-4.97,0-8.84-1.3-11.61-3.91.98-3.09,1.47-6.52,1.47-10.26,0-6.6-3.34-12.75-10.02-18.45-7.09-5.86-17.31-8.8-30.67-8.8-8.15,0-20.32.61-36.53,1.83-7.9.65-14.13,1.1-18.69,1.34-7.17.41-13.93.61-20.28.61-6.68,0-12.22-.73-16.62-2.2-4.32-1.38-6.48-3.18-6.48-5.38,0-3.83,4.6-8.55,13.81-14.17,9.04-5.46,16.29-8.19,21.75-8.19,2.36,0,4.56,1.34,6.6,4.03l2.2-.12c3.99-7.09,5.99-13.2,5.99-18.33,0-6.84-3.38-10.26-10.14-10.26s-15.72,4.11-26.39,12.34c-10.26,7.74-17.8,16.66-22.6,26.76-3.67,7.74-5.5,14.13-5.5,19.18,0,13.28,10.71,19.92,32.13,19.92,5.46,0,11.65-.2,18.57-.61,4.32-.32,10.63-.85,18.94-1.59,16.7-1.38,28.79-2.08,36.29-2.08,15.96,0,26.03,4.36,30.18,13.07-11.41,0-31.08.85-59.01,2.57-13.36.82-25.01,1.39-34.94,1.71-14.34.57-28.92.9-43.74.98h-8.06c-3.1,0-6.27-.53-9.53-1.59-3.67-1.3-6.11-2.93-7.33-4.89-1.47-2.61-3.5-6.92-6.11-12.95l-1.59-3.54-1.71-3.67c-1.22-2.85-2.44-5.38-3.67-7.58h-1.59c-3.99,5.46-7.86,11.45-11.61,17.96,9.29,15.8,14.38,28.31,15.27,37.51-1.39,4.23-5.86,8.51-13.44,12.83-8.15,4.64-16.21,6.96-24.19,6.96-8.8,0-15.72-2.24-20.77-6.72-5.46-4.81-8.19-11.77-8.19-20.89,0-6.52,1.87-13.56,5.62-21.14l-6.6-3.3c-6.52,12.3-9.77,23.83-9.77,34.58,0,13.6,3.42,24.07,10.26,31.4,6.52,7,15.52,10.51,27,10.51,17.02,0,31.16-6.44,42.4-19.31,4.4-8.15,7-16.86,7.82-26.15h.37c4.11,2.9,9.83,4.36,17.14,4.39.03,0,.06,0,.09,0h6.84c19.22,0,45.45-1.26,78.69-3.79,33.31-2.44,56.49-3.67,69.52-3.67,3.34,4.97,9.49,7.45,18.45,7.45h1.71v-.24h121.33c5.38,0,9.65.96,12.83,2.87,3.18,1.91,4.77,5.72,4.77,11.42h.49c2.28-4.56,3.42-9.92,3.42-16.07s-.73-11.49-2.2-16.01Z"/>
          <path class="cls-4" d="m403.33,919.8c4.41,0,9.23.98,12.74,3.43l3.1-6.21c-3.51-2.45-9.39-3.92-15.11-3.92-11.84,0-19.6,5.47-19.6,14.05,0,14.62,24.01,8.58,24.01,16.99,0,4-3.84,6.37-11.35,6.37-5.88,0-11.68-1.72-15.03-4.41l-3.51,6.21c3.51,2.86,10.45,4.98,17.81,4.98,11.76,0,19.85-5.06,19.85-14.05,0-14.38-23.93-8.25-23.93-16.99,0-3.76,3.76-6.45,11.03-6.45Z"/>
          <path class="cls-4" d="m481.65,920.86c-2.78-5.06-8.17-7.76-15.6-7.76-14.05,0-24.5,10.62-24.5,25.48,0,11.68,8.09,18.7,19.11,18.7,6.21,0,11.44-2.12,15.27-5.8l-1.06,5.31h7.51l8.58-43.29h-7.84l-1.47,7.35Zm-19.28,29.57c-8.25,0-12.91-4.57-12.91-12.17,0-10.7,7.19-18.3,16.91-18.3,8.25,0,12.9,4.49,12.9,12.17,0,10.7-7.11,18.3-16.91,18.3Z"/>
          <polygon class="cls-4" points="554.43 913.51 527.55 934.75 535.23 896.19 527.39 896.19 515.3 956.8 523.14 956.8 525.59 944.63 536.21 936.38 548.71 956.8 557.78 956.8 542.34 931.72 565.45 913.51 554.43 913.51"/>
          <path class="cls-4" d="m620.99,920.86c-2.78-5.06-8.17-7.76-15.6-7.76-14.05,0-24.5,10.62-24.5,25.48,0,11.68,8.09,18.7,19.11,18.7,6.21,0,11.43-2.12,15.27-5.8l-1.06,5.31h7.51l8.58-43.29h-7.84l-1.47,7.35Zm-19.28,29.57c-8.25,0-12.91-4.57-12.91-12.17,0-10.7,7.19-18.3,16.91-18.3,8.25,0,12.9,4.49,12.9,12.17,0,10.7-7.11,18.3-16.91,18.3Z"/>
          <path class="cls-4" d="m685.35,913.1c-6.21,0-11.68,1.88-15.68,5.96l1.06-5.55h-7.51l-8.58,43.29h7.84l4.57-22.87c1.88-9.31,7.6-13.8,16.01-13.8,6.78,0,10.05,3.19,10.05,8.82,0,1.06-.16,2.29-.41,3.59l-4.82,24.26h7.84l4.82-24.26c.33-1.8.49-3.51.49-5.06,0-9.23-5.88-14.38-15.68-14.38Z"/>
        </g>
      </g>
    </g>
  </g>
</svg>