<?xml version="1.0" encoding="UTF-8"?>
<svg id="Layer_2" data-name="Layer 2" xmlns="http://www.w3.org/2000/svg" viewBox="0 0 1147.9 674.81">
  <defs>
    <style>
      .cls-1 {
        fill: #fff;
      }
    </style>
  </defs>
  <g id="Layer_1-2" data-name="Layer 1">
    <g>
      <path class="cls-1" d="m1146.13,457.44c-2.87-11.84-5.63-23.79-13.97-33.55-8.58-10.04-24.4-12.13-31.88-4.84-12.76,12.44-23.47,26.99-35.03,40.66h0c-.85,1.49-1.7,2.99-2.55,4.48-.73,1.58-1.47,3.16-2.2,4.75-1.5,3.58-3,7.16-4.5,10.73-.53,1-1.07,2-1.6,3-2.46,2.85-4.57,6.11-7.43,8.49-14.21,11.83-31.42,17.63-48.54,23.55.03-1.24-.35-2.69.17-3.69,4.88-9.51,10.64-18.64,14.7-28.48,5.09-12.35,9.02-25.88,1.21-38.12-5.82-9.12-13.48-17.75-22.08-24.28-16.85-12.78-35.92-17.99-57.06-10.7-21.08,7.26-35.03,23.13-47.2,40.3-13.83,19.52-26.33,40.02-38.63,60.56-3.77,6.3-7.97,5.52-11.43,2.25-5.67-5.36-11.71-11.34-14.64-18.3-2.88-6.86-2.08-15.26-2.97-23.67-7.14-2.04-12.17,3.07-16.52,9.27-14.66,20.9-31.09,37.25-60.09,35.45-17.95-1.11-31.05-12.36-37.49-25.71-8.42-17.43-8.24-35.94-7.56-54.53.4-11,1.53-21.91,13.64-27.16,1.01.04,2.02.07,3.03.11,1.37,2.05,2.5,4.32,4.15,6.11,8.46,9.13,19.32,14.25,30.84,18.31.92.32,1.4,1.87,2.06,2.93.91-.71,1.86-1.92,2.72-1.86,7,.5,13.98,1.76,20.98,1.83,7.5.07,15.1-.34,22.5-1.56,17.6-2.9,35.78-4.38,52.47-10.11,27.13-9.31,53.56-20.88,79.64-32.92,10.1-4.66,20.5-11.6,27.05-20.3,9.11-12.1,15.17-26.61,21.65-40.5,3.56-7.63,2.93-15.54-4.08-21.91-4.63-4.2-8.42-9.41-13.32-13.21-17.03-13.19-36.29-19.98-57.3-12.61-25.69,9.01-44.85,27.66-63.27,47.01-5.72,6.01-12.47,11.03-18.55,16.3,12.62-30.7,15.31-62.94,14.63-95.67-.2-9.82-.82-19.63-1.37-29.44-.46-8.28-.88-16.58-1.71-24.83-1.87-18.6-3.96-37.18-6-55.77-1.28-11.66-2.64-23.32-3.97-34.98,0,0-.19-.3-.16-.27.25-1.18.54-2.34.82-3.49-.01-4.12-.03-8.24-.04-12.36,0-1.01.02-2.03.02-3.04-.34-1.5-.69-3-1.03-4.49.44-2.03.89-4.06,1.33-6.09,3.49,2.93,7.06,5.77,10.44,8.83,2.34,2.12,4.4,4.55,7.5,7.8.85-15.42-22.8-82.15-31.68-91.71-.44.24-1.17.39-1.26.73-3.92,13.92-17.31,25.71-9.59,42.31.49,1.04-.04,2.52.08,3.78,1.08,11.42,2.2,22.85,3.31,34.27,0,1.01,0,2.03,0,3.04,0,1.02,0,2.04,0,3.07-.03,8.64-.47,17.29-.02,25.9,1.24,23.58,2.86,47.15,4.33,70.72.52,8.29.93,16.59,1.6,24.88,1.44,17.98,3.07,35.95,4.47,53.94.35,4.56.13,9.16.13,13.74-.03,23.93.33,47.86-.36,71.77-.19,6.58-1.68,13.49-6.96,19.09-5.97,6.33-11.39,13.37-15.99,20.76-4.8,7.72-10.85,10.88-19.68,9.24-9.58-1.79-19.23-3.33-26.77-9.06,4.7-7.95,9.88-14.92,13.13-22.7,3.16-7.57,4.77-15.89,6.31-24.02,3.37-17.76,2.17-34.84-8.98-50.12-10.03-13.76-20.22-14.72-32.55-2.86-25.03,26.43-33.43,57.3-25.05,93.49-11.68,3.71-24.15,6.84-35.98,11.58-32.74,13.11-65.2,26.93-97.81,40.36-7.46,3.07-12.48,8.14-15.33,15.71-3.06,8.11-6.55,16.06-9.82,24.09-1.95,4.8-.08,7.72,4.66,9.12,1.68.5,3.36,1.01,5.07,1.42,18.52,4.53,37.12,8.78,55.54,13.67,11.85,3.15,23.61,6.8,35.09,11.08,5.96,2.22,5.84,5.57.4,9.13-11.26,7.39-22.2,15.42-34.04,21.74-41.06,21.91-83.79,39.62-129.1,51.04-33.89,8.55-68.18,14.39-102.96,16.93-19.92,1.46-39.98.99-59.98,1.41-7.09.15-14.18.34-21.27.52-2.04,0-4.08,0-6.12,0-6.11-.51-12.21-1.03-18.32-1.54-1.09-.57-2.13-1.5-3.28-1.66-19.01-2.63-38.29-3.98-56.98-8.02-25.26-5.47-50.22-12.51-75.06-19.75-40.32-11.74-76.55-32.48-112.91-52.84-6.14-3.44-12.23-6.98-18.35-10.47-.48.66-.96,1.32-1.44,1.98,1.57,2.23,2.96,4.61,4.73,6.66,11.37,13.14,22.55,26.46,34.34,39.2,8.55,9.24,16.77,19.6,27.24,26.05,17.41,10.73,35.84,20.59,55.05,27.38,23.08,8.15,47.28,13.39,71.27,18.58,18.79,4.07,38.02,6.15,57.05,9.11,1.53-.03,3.07-.06,4.6-.08,4.58.54,9.15,1.07,13.73,1.61,2.52.13,5.05.27,7.57.4,1.55.37,3.1.75,4.64,1.12,4.5-.07,9-.14,13.51-.21,1.61.05,3.22.09,4.83.14,4.58.03,9.15.06,13.73.09.36-1.93.72-3.87,1.08-5.8-.36,1.93-.72,3.87-1.08,5.8,1.53-.02,3.06-.05,4.6-.07,2.53.16,5.08.59,7.59.44,24.84-1.53,49.74-2.43,74.47-5.02,15.01-1.57,29.93-5.09,44.58-8.95,26.2-6.91,52.62-13.41,78.09-22.49,33.93-12.1,66.17-28.39,96.1-48.54,10.83-7.29,21.78-16.04,28.97-26.65,7.45-11,11.23-24.79,15.06-37.83,3.18-10.84-1.25-19.88-11.56-25.03-8.1-4.04-16.96-6.79-25.76-9.09-9.99-2.61-20.28-4.08-30.44-6.05-.16-.91-.33-1.81-.49-2.72,32.69-12.3,65.37-24.6,97.91-36.84-2.75,17.7-6.68,34.39-7.59,51.24-.95,17.56,1.76,35.03,8.88,51.65,12.15,28.39,38.75,37.6,65.91,30.44,17.43-4.6,27.75-17.92,37.67-31.61,2.95-4.07,6.02-8.06,10.17-13.6,1.16,17.24,6.85,30.36,18.29,39.48,6.13,4.89,7.69,8.52,4.22,14.96-.67,1.25-1.05,2.72-1.26,4.14-.75,5.04-1.38,10.1-2.05,15.15.91.23,1.83.47,2.74.7,3.74-8.48,7.47-16.96,10.88-24.7,7.2,2.14,13.49,4.01,19.79,5.89,4.8.51,9.6,1.43,14.4,1.44,16.61.04,33.22-.24,49.83-.4.44-1.3.88-2.59,1.31-3.87-.43,1.28-.87,2.58-1.31,3.87,8.7-1.41,17.4-2.83,26.1-4.24-.78-.71-1.57-1.41-2.31-2.09.74.67,1.53,1.38,2.31,2.09,1.99-.08,3.98-.17,5.96-.25,6.11-1.05,12.22-2.09,18.34-3.14-.78-.74-1.54-1.37-2.28-1.9.74.53,1.49,1.16,2.28,1.9,1.04-.36,2.08-.72,3.12-1.07,2.05-.47,4.09-.94,6.14-1.41,8.69-2.61,17.56-4.73,26.03-7.94,24.37-9.24,41.62-25.56,49.6-50.98.46-1.47,4.14-1.92,6.33-2.85,1.55,1.2,3.11,2.4,4.66,3.61,2.05,1.52,4.11,3.03,6.16,4.55,14.25,10.16,29.9,17.12,47.25,19.62,5.7.82,10.3-1.5,13.38-7.22,9.27-17.23,14.52-35.15,9.79-54.68Zm-323.22-111.53c.1.22,0,.12,0,0h0Zm-13.63,39.49c20.77-23.74,42.8-46.34,70.22-62.34,22.38-13.05,39.13-11.86,61.01,3.84,6.93,4.97,12.93,11.24,20.89,18.27-50.5,27.43-102.32,45.7-160.13,52.51,3.28-5.08,5.22-9.06,8.02-12.27Zm-98.39-52.19c4.14-5.77,10.16-10.19,15.4-15.17h0c11.91-.62,18.89,5.49,22.88,20.03,3.6,13.11,3.82,13.42-7.44,21.59-5.11,3.71-11.32,5.92-17.02,8.8-.93-.12-1.86-.24-2.79-.35-4.22-7.35-9.17-14.4-12.34-22.18-1.46-3.59-.9-9.64,1.31-12.73Zm-460.29,305c-.3-.13-.66-.39-.94-.46.28.07.63.33.94.46,0,0,0,0,0,0Zm88.38-5.42c.04-.1.08-.22.12-.33-.04.12-.08.23-.12.33h0Zm1.74-.69c-.41-.18-.9-.57-1.19-.46.29-.11.79.28,1.19.46,0,0,0,0,0,0Zm8.86-3.82s0,0,0,0c.41.18.9.58,1.19.47-.29.11-.78-.29-1.19-.47Zm579.38-97.1c.55.07,1.15.08,1.82.03-.67.05-1.28.04-1.82-.03Zm-4.19-5.33c.08.94.24,1.76.5,2.46.18.47.4.88.67,1.24-.27-.36-.49-.77-.67-1.24-.26-.7-.43-1.52-.5-2.46Zm41.28,26.12c1.06-.02,2.11.21,3.18.68-1.07-.47-2.12-.7-3.18-.68Zm-30.56-32.16c-1.53.48-3.06.96-4.6,1.43-2.06.86-4.11,1.72-6.17,2.58h0c-13.18,1.08-26.37,3.02-39.55,2.95-9.12-.05-18.22-2.89-27.33-4.49-.42-.92-.84-1.85-1.26-2.77,13.38-17.9,25.81-36.64,40.46-53.43,11.51-13.2,25.34-24.33,45.26-23.12,20.62,1.26,36.73,10.37,49.44,26.03,3.68,4.54,8.78,10.04,8.57,14.9-.15,3.51-8,6.71-12.45,9.99-3.2,2.36-6.46,4.63-9.69,6.95-14.23,6.32-28.45,12.65-42.68,18.97Zm134.15-58.55c-.22.1-.45.17-.7.21.24-.04.48-.11.7-.21Zm-7.78,11.51s0,0,0,0c-.18.4-.35.81-.53,1.21.17-.4.35-.81.52-1.21Zm60.84,7.6c-5.38-2.12-10.77-4.24-16.15-6.36-2.54-1.17-5.08-2.34-7.61-3.51-1.09-.66-2.17-1.31-3.26-1.96-3.99-2.95-7.97-5.9-11.96-8.85,4.1-2.99,7.8-7.36,12.38-8.67,7.25-2.07,14.5.34,18.52,7.21,3.8,6.49,6.4,13.69,9.52,20.57-.48.52-.95,1.05-1.43,1.57Z"/>
      <path class="cls-1" d="m589.67,286.94c2.02-11.51,2-11.47-8.36-16.57-2.69-1.32-5.24-2.94-7.8-4.51-4.22-2.59-4.43-5.11.12-7.65,11.75-6.56,23.18-13.75,35.25-19.65,20.82-10.18,41.89-19.9,63.11-29.22,30.93-13.58,61.98-26.9,93.21-39.76,8.5-3.5,12.98-9.02,15.24-18.78-3.2.72-5.61.92-7.73,1.8-34.87,14.53-69.93,28.63-104.47,43.9-26.28,11.62-51.92,24.69-77.79,37.23-10.29,4.99-18.91,11.59-23.14,22.99-2.58,6.95-5.58,14.11-.98,20.53,5.45,7.6,13.37,11.79,23.35,9.7Z"/>
      <path class="cls-1" d="m948.82,200.58c29.15-11.54,58.79-21.86,88.25-32.63,8.49-3.1,14.67-8.12,16.69-18.79-4.75.97-8.73,1.28-12.33,2.6-22.21,8.14-44.46,16.18-66.45,24.87-30.14,11.9-60.17,24.1-90.04,36.69-11.7,4.93-24.51,9.53-25.44,26.31,6.5-2.91,12.77-5.78,19.09-8.54,23.38-10.24,46.52-21.11,70.24-30.5Z"/>
      <path class="cls-1" d="m1072.97,290.91c4.57,4,9.58,7.49,15.05,11.71-29.41,28.2-65.83,46.42-98.78,69.46,27.28-6.22,80.6-30.6,105.86-68.12,3.08,5.08,5.74,9.46,8.4,13.83,11.74-9.8,11.9-16.75,1.14-26.16-1.58-1.38-2.14-4.78-1.96-7.16.59-7.94,2.2-15.81,2.51-23.75.3-7.83-5.34-11.16-13.04-8.89-11.5,3.39-16.69,12.73-21.86,22.27-3.46,6.39-2.69,12.1,2.68,16.8Zm8.15-19.4c.46-1.73,3.6-3.77,5.6-3.8,2.54-.04,6.66,1.2,7.35,2.96,1.64,4.21,1.67,9.04,2.35,13.63-.7.31-1.41.63-2.11.94-3.46-2.47-7.17-4.67-10.27-7.52-1.63-1.5-3.38-4.47-2.92-6.2Z"/>
      <path class="cls-1" d="m1086.86,541.88c-7.11,7.17-12.99,15.56-19.29,23.52-4.32,5.45-7.45,12.53-12.9,16.29-30.71,21.2-65.47,34.18-99.93,47.72-3.82,1.5-7.6,3.12-11.4,4.68.24.66.48,1.31.71,1.97,3.63-.67,7.27-1.27,10.88-2.02,7.04-1.48,14-3.56,21.11-4.49,25.86-3.39,49.52-13.09,70.21-28.21,10.51-7.68,17.65-19.99,26.51-30.44,4.5,2.67,9.79,6.76,15.78,8.99,3.57,1.33,8.75,3.04,12-2.48,6.01-10.19,4.67-24.01-1.98-32.62-2.9-3.75-8.09-6.54-11.71-2.9Z"/>
      <path class="cls-1" d="m912.61,590.04c-3.48-.11-7.74,2.39-10.45,4.95-6.33,5.97-11.79,12.85-17.94,19.02-1.54,1.54-4.99,3.18-6.45,2.47-9.51-4.57-17.85-1.68-25.33,3.87-6.77,5.02-13.44,10.54-18.89,16.92-13.02,15.27-29.13,26.51-45.67,37.52,10.66-.66,19.82-5.4,27.77-11.75,10.42-8.31,19.71-18.02,29.97-26.55,6.09-5.06,12.93-9.24,21.69-5.61,8.71,3.62,17.77,4.24,26.87,1.55,14.23-4.22,25.95-11.2,31.07-26.49,3.7-11.06-1.99-15.59-12.63-15.91Zm-22.82,28.83c-.32.35-.63.7-.95,1.05-.07-.65-.14-1.3-.21-1.95,5.01-5.2,9.55-11.01,15.2-15.41,4.15-3.23,11.32.26,15.12,6.44-9.16,5.09-18.23,10.06-29.16,9.87Z"/>
      <path class="cls-1" d="m875.83,129.76c7.42-2.93,8.73,1.73,10.49,5.63,4.54,10.08,8.39,20.47,13.54,33.27,2.09-4.84,4.17-8.09,4.91-11.62,2.93-14.04,5.15-28.24,8.32-42.23.77-3.38,3.77-8.12,6.48-8.68,2.71-.56,6.26,3.48,9.6,5.2,1.31.67,3.04.51,4.59.74.38-5.09,2.24-10.73.65-15.1-1.14-3.12-6.67-5.35-10.66-6.57-5.78-1.76-9.82,1.75-11.59,7.03-2.72,8.11-5.1,16.36-7.14,24.67-1.34,5.47-1.83,11.16-2.89,17.99-6.4-11.28-11.12-21.45-17.64-30.28-3.15-4.26-9.47-7.02-14.86-8.23-1.53-.34-5.44,6.88-7.17,11.08-3.01,7.31,6.41,19.86,13.38,17.11Z"/>
      <path class="cls-1" d="m1015.2,284.71c2.19-8.32,4.08-16.73,5.88-25.15,1.74-8.14,2.73-16.48,5.07-24.43.97-3.3,4.58-5.83,6.99-8.7,3.09,2.67,6.19,5.34,9.28,8.01.36.31.75.61,3.66,2.96.84-6.67,2.91-11.98,1.65-16.33-1.13-3.92-5.38-7.87-9.25-9.73-2.36-1.14-7.95.61-9.73,2.9-3.41,4.39-6.05,9.86-7.37,15.29-2.86,11.73-4.68,23.71-7.07,36.39-7.87-17.83-10.8-38.89-34.46-44.58-.83,8.49-12.21,15.24-2.55,24.13,4.13,3.8,8.47,10.23,16.83,1.56,6.28,15.04,12,28.73,17.8,42.62.88-1.27,2.75-2.91,3.27-4.91Z"/>
      <path class="cls-1" d="m703.64,114.06c9.01-.61,11.87,5.12,14.59,10.82,4.31,9.02,7.56,18.55,12.01,29.76,2.08-6.5,4.11-11.4,5.2-16.51,2.57-12.1,4.31-24.38,7.12-36.42,2.95-12.62,6.35-13.42,15.6-4.73,1.04.98,2.3,1.72,3.52,2.63,5.56-10.87,3.67-18.9-5.06-23.18-6.77-3.32-11.13-.92-15.78,11.04-2.82,7.25-3.77,15.26-5.29,22.98-1.16,5.84-1.9,11.77-3.1,19.45-4.71-9.73-7.63-18.05-12.47-25.04-4.38-6.32-10.66-11.41-16.55-16.53-1.29-1.12-6.14-.75-6.52.15-2.37,5.54-5.88,11.71-5.07,17.09.53,3.53,7.86,8.77,11.82,8.5Z"/>
      <path class="cls-1" d="m727.65,207.18c-1.24,1.09-2.8,1.91-3.54,3.2-4.75,8.22-9.51,16.45-13.75,24.93-.7,1.4.52,4.99,1.96,6.02,8.24,5.88,16.66,11.55,25.39,16.65,1.93,1.12,6.9.64,7.88-.83,4.83-7.24,9.18-14.88,12.79-22.79,1.02-2.24,0-7.2-1.86-8.65-6.89-5.37-14.5-9.82-21.87-14.56-2.03-1.31-4.21-2.4-6.99-3.97Z"/>
      <path class="cls-1" d="m629.67,648.93c-4.77-.45-9.75-3.79-13.4-7.15-.89-.82,2.44-7.53,5-10.52,6.74-7.84,14.86-14.57,21.1-22.76,9.29-12.17,8.18-13.99-6.61-15.82-1.69-.21-3.29-1.15-4.98-1.42-10.32-1.64-19.84,5.85-21.03,15.08,8.75-.5,17.79-1.01,26.83-1.53.24.95.49,1.9.73,2.85-2.35,2.17-4.5,4.63-7.09,6.46-9.58,6.77-15.79,16.02-20.33,26.61-4.47,10.43.67,19.63,11.58,20.85,23.1,2.6,40.84-7.1,55.2-24.64-1.99.87-3.96,1.78-5.97,2.61-13.17,5.44-26.54,10.76-41.04,9.37Z"/>
      <path class="cls-1" d="m575.33,352.78c6.62,13.53,5.27,28.2,2.83,42.69-.36,2.12.17,4.39.41,8.68,13.57-25.69,13.81-70.32-21.71-98.88-6.53,10.22-5.75,12.24.98,20.67,6.64,8.32,12.82,17.3,17.49,26.83Z"/>
      <path class="cls-1" d="m1103.44,317.9c.07.04.13.08.19.12h0s0,0,0,0c0,0,0,0,0,0,0,0,0,0,0,0-.05-.07-.09-.15-.14-.22,0,0-.01.01-.02.02,0,.03-.02.06-.03.09Z"/>
      <path class="cls-1" d="m1086.95,371.96c.39,5.03,2.95,10.75,9.86,11.58,6.24.74,9.36-3.47,11.35-8.01,2.66-6.08,4.25-12.63,6.29-18.97-.65-.29-1.31-.58-1.96-.87-1.37,2.35-2.46,4.94-4.18,6.99-1.77,2.11-4.18,5.15-6.27,5.12-2.2-.03-4.91-2.84-6.43-5.09-5.29-7.82-.68-15.63.99-23.23,1.62-7.34,4.51-14.4,6.84-21.58-.2-.13-.43-.27-.43-.27-10.85,16.49-17.59,34.37-16.06,54.33Z"/>
      <path class="cls-1" d="m645.82,178.9c3.91-6.41,6.87-13.39,10.24-20.13-1.01-.36-2.02-.71-3.03-1.07-.57,1.05-.92,2.34-1.75,3.12-2.19,2.04-4.98,5.72-6.8,5.33-2.7-.58-5.53-3.7-6.96-6.45-4.03-7.7.67-14.88,2.43-22.16.87-3.57,2.51-6.95,3.74-10.44,1.2-3.38,2.32-6.8,3.48-10.19-9.89,12.85-14.55,27.59-17.05,42.96-1.09,6.7-.58,13.68,4.85,19.01,3.57,3.51,7.79,5.05,10.85.03Z"/>
      <path class="cls-1" d="m752.3,435.99c.12-.16.22-.33.34-.49-.03-.04-.05-.09-.08-.14-.04.03-.09.07-.13.1-.04.17-.08.35-.13.52Z"/>
      <path class="cls-1" d="m741.13,492.87c2.71,3.36,6.28,5.87,10.03,2.32,5.87-5.55,8.83-12.6,8.68-19.53-3.71,1.91-7.15,3.69-10.59,5.46-2.05-4.22-5.74-8.44-5.75-12.67-.02-5.32,3.1-10.62,4.62-15.99,1.54-5.45,2.8-10.97,4.18-16.47-7.57,10.51-10.47,22.81-13.7,35.07-2.06,7.81-2.88,15.09,2.54,21.81Z"/>
    </g>
  </g>
</svg>