<?xml version="1.0" encoding="UTF-8"?>
<svg id="Layer_2" data-name="Layer 2" xmlns="http://www.w3.org/2000/svg" viewBox="0 0 1003.78 486.89">
  <defs>
    <style>
      .cls-1 {
        fill: #fff;
      }
    </style>
  </defs>
  <g id="Layer_1-2" data-name="Layer 1">
    <g>
      <g>
        <path class="cls-1" d="m996.12,250.33c-4.19-5.07-8.81-9.86-13.71-14.25-12.55-11.24-27.12-17.86-44.17-19.06-20.35-1.44-36.73,8.05-51.02,20.24-27.54,23.49-48.98,52.22-65.94,84.2-2.21,4.18-4.44,5.14-8.27,2.62-2.5-1.65-5.19-3.09-7.44-5.03-10.06-8.67-14.39-19.98-15.32-33.94-4.84,3.59-9.35,7.37-12.58,12.03-12.36,17.82-27.51,31.04-49.67,35.41-18.01,3.55-34.57-2.87-41.01-17.66-6.46-14.82-4.54-29.73.29-44.43.77-2.35,3.58-5.04,5.96-5.7,17.14-4.73,34.31-9.49,51.69-13.24,15.92-3.43,32.01-5.68,48.51-2.66,4.4.81,11.76-.2,13.73-3.11,5.74-8.49,9.44-18.36,14-27.83-10.03-.87-18.83-1.42-27.57-2.45-16.08-1.89-32.6-2.31-48.09-6.5-25.88-7-51.24-16.04-76.52-25.06-20.89-7.45-41.52-11.97-63.2-3.56-10.53,4.08-23.87,25.22-22.5,36.07,9.61.74,19.14,2.01,28.68,2.04,9.04.03,18.68,2.69,26.74-4.67,1.5-1.37,5.33-1.17,7.7-.44,18.74,5.79,37.39,11.89,56.58,18.06-10.01,3.46-19.3,7.28-28.92,9.89-29.29,7.95-58.58,16-88.12,22.92-20.39,4.78-36.89,12.8-41.36,35.51-.19.99-.08,2.13-.56,2.95-3.76,6.41-.32,9.11,5.39,10.64,9.55,2.57,19.15,4.93,28.64,7.68,13.94,4.04,27.96,7.86,41.62,12.71,7.53,2.67,7.35,5.52.9,10.09-32.72,23.19-69.12,39.07-106.79,51.77-25.88,8.72-52.65,14.82-79.08,21.87-33.46,8.92-67.89,11.68-102.19,13.03-29.45,1.16-59.13-.59-88.56-2.99-23.89-1.95-47.72-5.94-71.27-10.56-32.31-6.33-63.43-17.07-93.43-30.54-23.68-10.64-46.64-22.85-69.99-34.24-2.58-1.26-5.56-1.7-8.36-2.52-.31.62-.62,1.25-.92,1.87,16.28,21.2,35.53,39.53,55.89,56.79,15.98,13.55,34.83,21.84,54.13,29.17,25.98,9.86,52.87,16.4,80.3,20.67,12.03,1.87,24.1,3.56,36.2,4.88,16.15,1.76,32.35,4.27,48.53,4.31,24.49.06,49.01-1.42,73.48-2.87,15.97-.95,32.08-1.89,47.76-4.79,37.73-6.97,75.04-15.68,111.11-29.31,30.81-11.65,60.74-24.91,88.8-42.23,19.84-12.25,38.11-25.59,43.67-50.51,4.43-19.83,3.58-30.29-18.7-36.84-6.7-1.97-13.26-4.45-21.1-7.11,26.66-8.05,52.36-15.8,78.87-23.81-9.74,28.84-10.88,38.84-8.02,60.37,4.53,34.11,30.36,42.43,58.22,37.02,18.73-3.64,30.41-17.3,40.89-31.95,2.92-4.08,5.38-8.48,7.65-12.09,3.38,7.09,5.88,14.09,9.83,20.15,4.16,6.37,9.7,11.84,15.27,18.47-1.83,6.99-4.34,16.54-6.85,26.09,1.04.48,2.09.96,3.13,1.44,4.52-8.63,9.04-17.26,13.76-26.26,24.36,10.42,49.46,10.1,74.27,6.44,23.46-3.46,45.66-11.66,66.59-23.38,22.74-12.73,40.44-29.25,47.22-55.32,3.67-14.1,5.42-28.12-4.79-40.49Zm-12.15,46.52c-27.19,19.24-57.33,31.38-90.3,36.34-9.85,1.48-19.74,2.65-29.86,4-9.64-1.43-19.27-2.75-28.85-4.3-6.02-.97-3.12-4.7-1.5-7.02,5.12-7.34,9.98-15.04,16.15-21.43,13.96-14.44,27.71-29.31,43.25-41.91,22.77-18.46,50.72-13.97,72.14,3.76,7.92,6.56,14.1,15.3,20.53,23.46,1,1.27-.02,6.02-1.55,7.1Z"/>
        <path class="cls-1" d="m361.37,174.77c20.72-9.19,41.24-18.84,62.09-27.71,30.62-13.03,61.38-25.71,92.22-38.19,33.49-13.56,67.14-26.71,100.71-40.05,30.65-12.17,61.01-25.14,92.07-36.16,12.82-4.55,18.47-12.51,21.36-25.15-3.04.69-5.76.96-8.22,1.92-24.81,9.64-49.58,19.37-74.34,29.11-28.34,11.15-56.71,22.24-85,33.52-34.38,13.7-68.82,27.27-102.99,41.48-26.83,11.15-52.99,23.98-80.05,34.5-13.54,5.26-22.33,12.57-24.11,28.07,2.15-.44,4.38-.5,6.27-1.34Z"/>
        <path class="cls-1" d="m290.13,341.39c6.68-4.94,12.96-10.92,17.85-17.59,3.28-4.48,4.95-10.91,5.33-16.6,2.22-32.8-5.63-64.35-12.66-96.01-3.39-15.26-6.2-30.46-1.06-46.26,3.37-10.35,8.96-17.36,19.1-20.85,2.29-.79,4.6-1.53,7.23-2.4-9.04-12.02-13.66.34-20.5,3.85.99-10.75,3.22-19.83,11.48-26.59,1.23-1.01,1.82-4.15,1.25-5.81-3.76-11.01-7.81-21.93-11.99-32.8-1.43-3.72-3.56-5.38-8.13-3.04-6.7,3.44-10.26-3.53-14.72-6.36-1.52-.96-.37-6.13-.42-9.38,0-.24.15-.48.25-.72,6.03-13.76,15.87-15.22,24.54-2.32,5.95,8.85,9.23,19.49,13.67,29.35.69,1.53,1.15,3.16,1.72,4.75l1.27-.08c2.03-9.89,3.53-19.93,6.25-29.63,1.76-6.28,4.92-12.27,8.14-18.01,2.75-4.91,7.55-6.74,12.87-4.3,5.88,2.7,10.07,7.19,9.13,14.19-.44,3.28-2.39,6.35-3.66,9.52-2.5-1.45-5.15-2.69-7.46-4.4-5.4-3.99-11.09-1.35-13.08,6.45-2.18,8.54-4.2,17.13-6.14,25.73-1.94,8.61-3.69,17.25-5.31,24.89,6.81,6,13.7,11.67,20.09,17.87,3.33,3.24,4.27,7.16,2.18,12.26-3.35,8.19-8.76,12.25-17.43,11.93-8.49-.31-15.77,2.54-21.94,8.16-3.77,3.44-5.52,6.79-4.02,13,4.54,18.76,6.91,38.04,11.3,56.84,4.62,19.8,4.58,39.74,4.38,59.78-.14,14.07-4.81,21.67-13.14,30.96-2.67,2.98-5.64,5.69-8.86,8.07l-7.5,5.54Z"/>
        <path class="cls-1" d="m381.39,350.86c-30.63,23.06-65.82,36.51-102.44,46.63-9.93,2.74-19.9,5.38-29.85,8.06.18.89.36,1.77.53,2.66,4.44-.57,8.91-.98,13.31-1.74,15.17-2.61,31.04-3.32,45.32-8.45,31.73-11.38,63.13-23.66,86.61-50.26,13.3-15.06,16.55-31.63,14.46-50.32-.42-3.72-1.08-8.59-3.55-10.69-7.19-6.11-14.37-12.05-24.64-13.89-14.73-2.63-26.21,2.37-34.62,13.12-8.13,10.41-12.36,22.74-5.69,36.1,4.38,8.77,16.14,13.3,23.21,8.62,7.68-5.09,11.36-17.57,5.62-25.36-1.63-2.21-5.6-4.28-8.04-3.85-2.48.43-5.26,3.72-6.25,6.37-.6,1.63,1.51,4.81,3.16,6.59,1.85,1.98,4.55,3.15,7.12,4.83-10.93,4.11-12.6,3.64-18.72-4.88-4.26-5.94-4.18-13.51.79-19.16,7.23-8.22,16.82-9.77,27.28-9.48,22.86.62,37.28,25.52,25.04,44.84-4.85,7.66-11.43,14.81-18.67,20.26Z"/>
        <path class="cls-1" d="m586.87,437.27c-3.24,6.14-6.85,12.08-10.5,18.43-10.45-6.66-20.55-13.1-30.94-19.72-4.9,9.01-8.95,17.05-13.57,24.75-2.57,4.28-1.89,6.45,2.36,8.99,8.64,5.17,16.91,10.95,26.33,17.13,3.85-6.64,7.82-12.65,10.93-19.08,2.49-5.12,4.73-6.14,9.49-2.43,5.9,4.59,12.18,8.79,18.71,12.39,2.08,1.15,7.14.89,8.05-.52,5.27-8.15,9.7-16.84,14.92-26.26-8.69-5.65-17.22-11.21-25.76-16.75-4.55-2.95-7.61-1.56-10.05,3.07Z"/>
        <path class="cls-1" d="m914.34,391.94c-5.61-.86-13-.93-17.18,2.05-8.4,5.97-15.42,14.02-22.47,21.71-3.46,3.77-6.46,6.01-11.57,3.64-1.48-.69-3.38-.48-5.08-.68-12.74-1.53-21.65,5.4-30.45,13.22-13.33,11.85-26.61,23.83-40.73,34.69-9.19,7.07-19.83,12.26-29.82,18.3.13.67.27,1.35.4,2.02,8.51-2.94,17.18-5.47,25.49-8.89,17.1-7.04,29.53-20.39,42.69-32.67,9.25-8.62,19.57-13.65,32.22-9.32,12.11,4.15,23.9,3.95,35.72-.52,13.25-5.02,22.63-13.97,27.19-27.56,2.44-7.27-.11-15.01-6.42-15.98Zm-5.05,22.9c-9.85,5.55-20.48,8.29-31.69,8.55l-1.08-2.07c5.36-4.78,10.1-10.74,16.28-13.94,4.36-2.26,10.93-1.85,16.03-.63,4.78,1.14,5.46,5.26.45,8.08Z"/>
        <path class="cls-1" d="m677.81,467.48c-9.23-2.48-11-6.77-5.3-14.05,6.52-8.32,14.64-15.38,21.38-23.55,4.2-5.09,7.69-10.98,10.38-17.01,1.42-3.18,1.3-7.78-4.71-8.04-6.27-.27-12.52-1.23-18.79-1.35-10.6-.2-16.34,4.45-19.46,15.08q25.6-1.99,31.53,2.24c-4.37,4.25-9.03,8.11-12.88,12.65-7.21,8.48-15.14,16.52-17.81,28.02-2.38,10.24,3.48,21.09,13.08,21.15,10.39.07,21.03-.74,31.11-3.08,10.34-2.4,18.82-9,25.28-18.39-5.6,1.64-11.19,3.3-16.8,4.91-12.23,3.51-24.66,4.71-37.03,1.39Z"/>
        <path class="cls-1" d="m592.37,150.3c3.38-.61,6.74-1.4,10.14-1.81,23.19-2.77,37.24-17.03,47.13-36.89,3-6.03.9-9.52-4.73-10.42-9.85-1.59-19.85-2.63-29.81-3-4.21-.16-9.91.65-12.47,3.35-5.41,5.73-9.19,12.98-13.25,19.04,15.06.87,28.89,1.67,42.71,2.47.18.95.36,1.91.55,2.86-13.56,7.62-27.13,15.25-40.69,22.87.14.51.28,1.01.41,1.52Z"/>
        <path class="cls-1" d="m775.13,90.24c21.17-1.45,33.28-24.76,24-40.43-3.2-5.4-8.38-10.3-13.79-13.53-4.97-2.96-5.07-4.92-2.58-9.33,2.13-3.77,3.24-8.12,4.8-12.21-.74-.37-1.49-.75-2.23-1.12-1.55,1.81-3.44,3.42-4.59,5.45-8.72,15.42-16.21,31.43-19.34,48.98-2.42,13.56,2.15,22.98,13.73,22.19Zm-6.34-27.53c1-4.25,2.82-8.3,4.65-13.51,6.61,4.46,12.28,7.97,17.58,11.98,3.5,2.65,3.21,6.19-.97,7.57-5.1,1.68-10.59,3.09-15.88,2.97-4.84-.11-6.43-4.59-5.38-9.01Z"/>
        <path class="cls-1" d="m851.48,150.07c-5.75,10.41-10.9,19.73-16.46,29.79,9.44,6.41,18.24,12.7,27.47,18.3,1.33.81,5.73-1.05,6.94-2.86,3.92-5.85,6.77-12.42,10.52-18.4,3.06-4.89,1.41-8.03-2.77-10.68-8.14-5.17-16.32-10.25-25.71-16.14Z"/>
        <path class="cls-1" d="m979.25,414.68c-1.88,5.27-6.14,8.97-11.03,8-2.91-.58-5.45-5.71-7.14-9.28-4.1-8.65.12-16.98,2.36-25.12,2.52-9.13,6.24-17.94,9.43-26.88-.19-.2-.38-.41-.57-.61-1.18,1.44-2.77,2.7-3.47,4.34-5.18,12.09-11.26,23.94-14.93,36.49-3.18,10.87-3.83,22.45,2.37,33.3,2.2,3.85,4.55,5.39,8.86,5.28,10.09-.27,19.98-17.59,16-28.96-.72,1.3-1.47,2.31-1.88,3.45Z"/>
        <path class="cls-1" d="m953.24,133.83c2.54-9.84,6.16-19.41,9.33-29.09-.33-.15-.65-.31-.98-.46-1.01,1.08-2.46,1.98-2.96,3.25-5.36,13.83-11.71,27.42-15.37,41.7-2,7.83-.18,17.01,1.54,25.23.73,3.48,5.16,7.44,8.79,8.75,4.94,1.79,10.02-.14,12.19-5.99,2.82-7.58,5.62-15.17,8.43-22.76-.75-.32-1.49-.64-2.24-.97-1.07,1.79-1.8,3.95-3.27,5.3-3.04,2.79-6.9,7.63-9.66,7.16-5-.84-9.09-5.36-8.52-11.58.64-6.88,1-13.91,2.72-20.55Z"/>
        <path class="cls-1" d="m485.48,215.95l-1.63-.8c-3.96,8.67-8.51,17.12-11.74,26.05-4.94,13.64-9.81,27.36-5.81,42.49,2.45,9.29,10.37,15.59,16.76,11.93,6.86-3.92,13.18-19.65,10.97-28.22-1.56,2.7-2.72,5.17-4.29,7.36-3.55,4.96-11.56,5.18-13.67-.29-2.11-5.47-3.7-12.2-2.49-17.7,3.05-13.8,7.82-27.23,11.9-40.8Z"/>
        <path class="cls-1" d="m460.25,88.74c6.06-3.45,11.71-18.93,9.21-25.92-.85,1.49-1.48,2.84-2.32,4.04-5.36,7.63-12.78,7.48-15.81-1.34-2.05-5.98-2.09-13.41-.66-19.65,2.67-11.6,7.07-22.8,11.49-36.45-2.18,2.39-3.34,3.14-3.75,4.18-5.05,12.76-10.6,25.37-14.77,38.42-3.46,10.83-3.57,22.08,2.17,32.59,3.16,5.79,8.76,7.36,14.44,4.13Z"/>
        <path class="cls-1" d="m434.34,274.07c-2.81-6.07-9.44-9.42-16.08-8.11-6.86,1.35-10.95,7.11-11.86,16.74,8.69-7.99,13.85-9.57,19.83-5.53,5.18,3.5,6.61,8.39,2.94,16.11,6.73-5.74,8.13-12.81,5.18-19.2Z"/>
      </g>
      <path class="cls-1" d="m898.63,39.77c4.57,4,9.58,7.49,15.05,11.71-29.41,28.2-65.83,46.42-98.78,69.46,27.28-6.22,80.6-30.6,105.86-68.12,3.08,5.08,5.74,9.46,8.4,13.83,11.74-9.8,11.9-16.75,1.14-26.16-1.58-1.38-2.14-4.78-1.96-7.16.59-7.94,2.2-15.81,2.51-23.75.3-7.83-5.34-11.16-13.04-8.89-11.5,3.39-16.69,12.73-21.86,22.27-3.46,6.39-2.69,12.1,2.68,16.8Zm8.15-19.4c.46-1.73,3.6-3.77,5.6-3.8,2.54-.04,6.66,1.2,7.35,2.96,1.64,4.21,1.67,9.04,2.35,13.63-.7.31-1.41.63-2.11.94-3.46-2.47-7.17-4.67-10.27-7.52-1.63-1.5-3.38-4.47-2.92-6.2Z"/>
    </g>
  </g>
</svg>